<svg viewBox="0 0 248 58" xmlns="http://www.w3.org/2000/svg" fill="none">
  <path d="M4 52V30.5C4 16.8 13.2 6 24.5 6c11.3 0 20.5 10.8 20.5 24.5V52" stroke="#ece9d4" stroke-width="2.15" stroke-linecap="round" stroke-linejoin="round"/>
  <path d="M12.5 52V33.5C12.5 22.8 18.8 15.5 27 15.5c8.2 0 14.5 7.3 17 18" stroke="#ece9d4" stroke-width="2.15" stroke-linecap="round" stroke-linejoin="round"/>
  <path d="M21 52V36.5C21 28.8 24.8 24 29.5 24c4.7 0 9.5 4.8 12.5 14.5" stroke="#ece9d4" stroke-width="2.15" stroke-linecap="round" stroke-linejoin="round"/>
  <circle cx="8.5" cy="34" r="2.1" fill="#ece9d4"/>
  <path d="M4 52h14M22 52h12M38 52h11" stroke="#ece9d4" stroke-width="2.15" stroke-linecap="round"/>
  <text x="46" y="43.5" fill="#ece9d4" font-family="Montserrat, sans-serif" font-size="38" font-weight="500" letter-spacing="0.14em">DARNA</text>
</svg>
